<?xml version="1.0" encoding="UTF-8"?>
<svg data-bbox="0.003 -290.993 1247.997 647.389" xmlns="http://www.w3.org/2000/svg" viewBox="0 0 841 357" height="357" width="841" data-type="color">
    <g>
        <g clip-path="url(#59b590c3-4ba5-4000-b779-42cbce47890b)">
            <path fill="#FFC648" d="M1172.41 199.746c-118.22-96.913-261.724-179.182-418.592-168.25-20.317 1.482-40.27 4.082-60.987 6.966-118.254 17.164-235.527 41.098-353.192 62.715-43.961 8.084-88.27 16.532-133.334 15.617-19.547-.421-38.752-2.165-58.11-7.947-39.028-11.375-67.909-42.086-56.425-84.666 9.763-35.847 39.406-68.127 68.948-89.213 15.66-10.78 32.026-20.68 48.87-29.484 30.544-16.292 63.319-27.624 93.238-43.611 18.21-9.683 35.251-21.341 51.224-34.409 22.561-18.166 41.672-40.009 56.875-64.771 8.731-14.149 16.205-29.149 22.496-44.723l13.648 4.969c-13.641 42.057-36.224 81.746-67.523 113.365-18.879 18.973-39.624 36.057-62.374 50.222-29.469 18.479-61.154 31.88-90.1 49.887-14.077 8.615-27.544 18.036-40.553 28.169-17.673 13.888-33.356 31.743-43.554 51.645-4.242 8.724-7.416 17.012-7.009 25.569.348 2.382.545 3.377 1.46 4.576a19 19 0 0 0 2.658 3.283c5.797 5.426 12.61 7.867 21.581 10.046 6.465 1.482 13.627 2.353 21.036 2.76 43.72 2.092 88.596-8.854 131.14-19.597 104.22-26.317 207.997-54.34 312.907-78.565 38.862-8.782 77.519-17.557 117.361-23.273C851.276-74.308 961.372-51.13 1059.37-8.106c67.03 29.215 129.59 66.972 188.63 109.283l-75.59 98.562z" data-color="1"/>
            <path fill="#FE521C" d="M1118.66 269.479c-116.85-95.984-260.491-178.42-416.131-168.454-27.559 1.569-54.754 5.004-82.386 8.847-96.346 13.641-191.581 33.762-287.87 49.662-27.435 4.787-54.768 8.993-82.748 10.395-73.836 4.561-172.151-8.317-200.77-88.756C36.138 45.958 44.113 5.993 63.878-24.66c15.871-25.096 37.902-45.202 61.851-62.018 30.384-21.334 65.01-36.646 99.411-49.023 40.881-14.782 81.899-28.154 116.765-54.195 5.121-3.748 10.068-7.714 14.891-11.862 6.37-5.404 13.234-11.549 19.263-17.331 7.671-7.409 15.08-15.232 21.704-23.484 10.758-13.285 19.024-27.929 25.489-43.829l13.649 4.968c-11.201 36.697-32.84 65.134-59.44 92.09-12.857 13.336-27.253 25.278-42.609 35.636-44.592 30.406-97.45 45.224-143.822 71.156C147.454-57.74 91.843-15.718 89.526 38.106c-.705 19.692 7.954 38.665 22.823 51.362 48.827 40.314 149.727 24.958 208.099 11.172 121.661-30.116 241.767-68.868 365.948-89.3 28.924-4.366 58.328-5.928 87.564-5.078 115.959 3.4 227.18 45.878 326.14 103.443 32.56 18.9 63.85 39.493 94.14 61.197l-75.59 98.562z" data-color="2"/>
            <path fill="#FFC7E9" d="M1050.29 356.396c-115.844-95.075-257.683-176.93-411.965-168.686-108.216 5.143-214.862 26.963-323.521 31.082-84.426 2.709-207.017-7.409-271.62-67.081C17.04 127.254 7.067 100.414 1.801 65.396c-8.303-55.19 12.66-102.993 52.444-140.648 45.617-43.895 91.858-62.483 152.125-76.153 49.59-11.688 101.562-21.145 140.437-55.808a430 430 0 0 0 19.554-17.694c13.162-12.872 25.322-26.76 34.511-42.697 4.322-7.423 8.041-15.246 11.396-23.389l13.649 4.969c-2.84 8.818-6.203 17.65-10.314 26.2-12.218 25.539-30.799 47.294-50.505 67.284-53.897 56.381-131.968 61.836-199.725 89.853-23.941 9.835-44.301 22.873-63.579 39.602-24 20.57-45.973 45.863-53.004 76.603-5.397 23.47-1.518 46.91 6.654 70.204a70 70 0 0 0 2.869 6.865c4.533 9.24 10.787 16.931 18.777 23.883 51.594 43.35 154.645 48.536 220.447 45.151a563 563 0 0 0 19.104-2.28c98.054-14.15 194.088-41.782 292.25-57.595 87.797-15.08 178.877-4.01 262.853 23.775 55.125 18.079 108.376 43.262 158.235 72.1 33.18 19.19 65.07 40.117 95.9 62.214z" data-color="3"/>
        </g>
        <defs fill="none">
            <clipPath id="59b590c3-4ba5-4000-b779-42cbce47890b">
                <path fill="#ffffff" d="M0 356.396v-647.397h1248v647.397z"/>
            </clipPath>
        </defs>
    </g>
</svg>
