<?xml version="1.0" encoding="UTF-8"?>
<svg data-bbox="-575 0 1247.996 647.389" xmlns="http://www.w3.org/2000/svg" viewBox="0 0 673 403" height="403" width="673" data-type="color">
    <g>
        <g clip-path="url(#f55b52d3-9cd2-4779-bc42-9f2c440123e0)">
            <path fill="#FFC648" d="M-499.413 156.65c118.224 96.913 261.727 179.183 418.595 168.251 20.317-1.482 40.27-4.083 60.987-6.966 118.254-17.164 235.527-41.099 353.192-62.715 43.961-8.085 88.27-16.533 133.334-15.618 19.547.422 38.752 2.165 58.11 7.947 39.028 11.375 67.909 42.086 56.425 84.666-9.763 35.847-39.406 68.127-68.948 89.214-15.66 10.779-32.026 20.68-48.87 29.483-30.544 16.293-63.318 27.624-93.238 43.612-18.21 9.682-35.251 21.341-51.224 34.408-22.561 18.167-41.672 40.009-56.875 64.771-8.731 14.15-16.205 29.15-22.496 44.723l-13.648-4.968c13.641-42.057 36.224-81.747 67.523-113.366 18.879-18.973 39.624-36.057 62.374-50.221 29.469-18.479 61.154-31.881 90.1-49.888 14.077-8.615 27.544-18.036 40.553-28.169 17.673-13.888 33.356-31.742 43.554-51.645 4.242-8.724 7.416-17.012 7.009-25.568-.348-2.383-.544-3.378-1.46-4.576a19 19 0 0 0-2.658-3.284c-5.797-5.426-12.61-7.866-21.581-10.045-6.465-1.482-13.627-2.354-21.036-2.761-43.72-2.092-88.596 8.855-131.14 19.598-104.22 26.317-207.997 54.34-312.907 78.565-38.862 8.782-77.52 17.556-117.36 23.273-107.178 15.334-217.274-7.845-315.277-50.868C-453.405 335.288-515.96 297.531-575 255.22l75.587-98.562z" data-color="1"/>
            <path fill="#FE521C" d="M-445.662 86.918c116.852 95.983 260.493 178.42 416.133 168.454 27.559-1.569 54.754-5.005 82.386-8.848 96.346-13.641 191.581-33.762 287.87-49.662 27.435-4.787 54.768-8.992 82.748-10.394 73.836-4.562 172.151 8.317 200.77 88.756 12.618 35.214 4.642 75.179-15.123 105.832-15.871 25.097-37.902 45.203-61.851 62.018-30.384 21.334-65.01 36.646-99.411 49.023-40.881 14.782-81.899 28.155-116.765 54.195-5.121 3.748-10.068 7.714-14.891 11.862-6.37 5.404-13.234 11.549-19.263 17.331-7.671 7.409-15.08 15.232-21.704 23.484-10.758 13.285-19.024 27.929-25.489 43.83l-13.649-4.969c11.201-36.696 32.84-65.134 59.44-92.09 12.857-13.336 27.253-25.278 42.609-35.636 44.592-30.406 97.451-45.224 143.822-71.155 43.576-24.813 99.187-66.834 101.504-120.659.705-19.692-7.954-38.665-22.823-51.362-48.827-40.314-149.727-24.958-208.099-11.171-121.661 30.115-241.767 68.867-365.948 89.3-28.924 4.366-58.328 5.927-87.564 5.078-115.959-3.4-227.182-45.878-326.143-103.444-32.556-18.9-63.848-39.493-94.138-61.197l75.586-98.561z" data-color="2"/>
            <path fill="#FFC7E9" d="M-377.288 0c115.842 95.075 257.681 176.93 411.963 168.686 108.216-5.143 214.862-26.963 323.521-31.081 84.426-2.71 207.017 7.409 271.621 67.08 26.142 24.457 36.115 51.297 41.381 86.315 8.303 55.19-12.661 102.993-52.444 140.649-45.617 43.894-91.858 62.482-152.125 76.153-49.59 11.687-101.562 21.145-140.437 55.807a429 429 0 0 0-19.554 17.695c-13.162 12.871-25.322 26.759-34.51 42.696-4.322 7.424-8.041 15.247-11.397 23.389l-13.649-4.968c2.84-8.818 6.203-17.651 10.315-26.2 12.217-25.54 30.798-47.295 50.504-67.285 53.898-56.381 131.968-61.836 199.725-89.852 23.941-9.835 44.301-22.874 63.579-39.602 24-20.571 45.972-45.864 53.004-76.604 5.397-23.469 1.518-46.909-6.654-70.204a70 70 0 0 0-2.869-6.864c-4.533-9.24-10.787-16.932-18.777-23.883-51.594-43.351-154.645-48.537-220.447-45.152a566 566 0 0 0-19.104 2.281c-98.053 14.15-194.088 41.781-292.25 57.594-87.797 15.08-178.877 4.01-262.853-23.774-55.125-18.08-108.376-43.263-158.234-72.1-33.181-19.191-65.069-40.118-95.896-62.214z" data-color="3"/>
        </g>
        <defs fill="none">
            <clipPath id="f55b52d3-9cd2-4779-bc42-9f2c440123e0">
                <path fill="#ffffff" d="M673 0v647.397H-575V0z"/>
            </clipPath>
        </defs>
    </g>
</svg>
